# xmcd
# 
# Track frame offsets:
#     150
#     23738
#     44857
#     64363
# 
# Disc length: 1167
# 
# Revision: 1
# Processed by: cddbd v1.5.2PL0 Copyright (c) Steve Scherf et al.
# Submitted via: BonkEnc v1.0.8
# 
DISCID=37048d04
DTITLE=ANGERA AKI - TEGAMI - Haikei Jyugo no kimi he -  
DYEAR=2008
DGENRE=JPop
TTITLE0=手紙～拝啓 十五の君へ～
TTITLE1=Final Destination
TTITLE2=Still Fighting It
TTITLE3=手紙～拝啓 十五の君へ～ strings version
EXTD=
EXTT0=
EXTT1=
EXTT2=
EXTT3=
PLAYORDER=
